<?xml version="1.0" encoding="UTF-8"?>
<svg width="86px" height="86px" viewBox="0 0 86 86" version="1.1" xmlns="http://www.w3.org/2000/svg" xmlns:xlink="http://www.w3.org/1999/xlink">
    <!-- Generator: Sketch 55.2 (78181) - https://sketchapp.com -->
    <title>tech blog logo</title>
    <desc>Created with Sketch.</desc>
    <g id="tech-blog-logo" stroke="none" stroke-width="1" fill="none" fill-rule="evenodd">
        <rect fill="#FFFFFF" x="0" y="0" width="86" height="86"></rect>
        <circle id="Oval" cx="43" cy="43" r="43"></circle>
        <path d="M68.5400804,45.1621232 L61.111025,45.1621232 C60.040774,54.2176357 52.3430749,61.2429145 43,61.2429145 C32.9245059,61.2429145 24.7570855,53.0754941 24.7570855,43 C24.7570855,32.9245059 32.9245059,24.7570855 43,24.7570855 C52.1565918,24.7570855 59.7364552,31.5039909 61.0423776,40.297346 L68.5400804,40.297346 C69.8778941,40.297346 70.972469,41.3919209 70.972469,42.7297346 C70.972469,44.0675483 69.8778941,45.1621232 68.5400804,45.1621232 M43,13 C59.5683501,13 73,26.4316499 73,43 C73,59.5683501 59.5683501,73 43,73 C26.4316499,73 13,59.5683501 13,43 C13,26.4316499 26.4316499,13 43,13 Z M48.8334084,44.1227365 C48.8977316,43.9849012 48.9577305,43.8449037 49.0128646,43.7022036 C49.0204321,43.683285 49.0263779,43.6632853 49.0339453,43.6438262 C49.2058341,43.183294 49.3285346,42.6984379 49.3917767,42.1952037 C49.4106953,42.1027729 49.4328571,42.0125043 49.449073,41.9189925 C49.4906939,41.6681862 49.5139367,41.4384606 49.5236662,41.2222482 C49.5144772,40.8179312 49.4723158,40.4211816 49.3912362,40.0379453 C48.8171925,37.3055621 46.5215582,35.216951 43.6918794,34.9353345 C43.6567449,34.9315508 43.6216104,34.926686 43.5864759,34.9234428 C43.5643142,34.9218212 43.5426929,34.917497 43.5205312,34.9158754 C43.499991,34.9142538 43.4783698,34.9142538 43.4578296,34.9126322 C43.3205348,34.9039837 43.1848615,34.892092 43.0454046,34.892092 C43.0318913,34.892092 43.0178375,34.8937136 43.0043242,34.8937136 C42.9897299,34.8937136 42.9762166,34.892092 42.9627034,34.892092 C42.8102737,34.892092 42.6616277,34.9045242 42.5124412,34.9147943 C42.5037927,34.9153349 42.4951442,34.9153349 42.4875768,34.9158754 L42.4870363,34.9158754 C42.3167691,34.9283076 42.1492045,34.9483072 41.982721,34.9737122 C41.9621809,34.9769554 41.9416407,34.979658 41.9211005,34.9834417 C41.7573197,35.0099277 41.596782,35.0412785 41.437866,35.0796562 C41.4243527,35.0828994 41.41138,35.0866831 41.3973262,35.0899263 C40.7405813,35.2531666 40.1249167,35.5147835 39.5643862,35.8607232 C39.5373597,35.8774797 39.5097926,35.8931551 39.4827661,35.9104521 C39.3670925,35.9845048 39.2546621,36.0623412 39.1438533,36.1434208 C39.1022324,36.1736906 39.0611521,36.2050414 39.0200717,36.2358516 C38.9173709,36.3147691 38.8168321,36.3953082 38.7189961,36.4801715 C38.6757536,36.5174682 38.6346732,36.5563864 38.5925118,36.5953046 C38.497919,36.681249 38.4038666,36.7671934 38.3152195,36.8590836 C38.2865714,36.8877318 38.2611665,36.9190825 38.2335994,36.9488117 C38.0703591,37.1228627 37.9173889,37.3061026 37.7741482,37.4974505 C37.7276626,37.559071 37.6795553,37.6190699 37.6357723,37.682312 C37.5768545,37.7666348 37.5228014,37.8542008 37.4687483,37.9417668 C37.4211816,38.0174411 37.3736149,38.0931154 37.3292914,38.1709519 C37.2801031,38.2574368 37.2336174,38.3450028 37.1882128,38.4336498 C37.1449704,38.5179726 37.10389,38.603917 37.0644313,38.6909425 C37.0238915,38.7785085 36.9844327,38.865534 36.9487577,38.9552621 C36.9092989,39.0514765 36.875786,39.1493126 36.8411921,39.2476892 C36.8120034,39.3325526 36.7801121,39.4163348 36.7536261,39.5028198 C36.7017351,39.6774112 36.6552495,39.8547053 36.6168718,40.0347021 C36.6130881,40.0547017 36.6082233,40.0741608 36.6044396,40.0941605 C36.5082251,40.4055062 36.4628205,40.7752293 36.4839012,41.2206267 C36.4828201,41.2735987 36.4763338,41.3249491 36.4763338,41.3784616 C36.4763338,43.3092377 37.3244266,45.0373146 38.6633214,46.2259419 C38.6633214,46.2264824 38.6638619,46.2270229 38.6644024,46.2275635 C38.664943,46.2286445 38.6665646,46.2291851 38.6676456,46.2302661 C39.2681753,46.7616079 39.9660006,47.1816003 40.7324733,47.4632169 L40.7330138,47.4632169 C40.7140952,47.6637538 40.6876092,47.8837498 40.656799,48.1107728 C40.5205852,49.1156195 40.2530225,50.3064089 39.7195186,51.1080161 C39.7195186,51.1080161 41.1967892,50.6409975 43.0043242,49.6426371 C43.7572837,49.2258878 44.5648367,48.7188699 45.351309,48.1107728 C46.0567017,47.5642961 46.7377705,46.9361993 47.3437055,46.2275635 C47.4674871,46.0827012 47.5934307,45.9394606 47.7101854,45.7881119 L47.7101854,45.7875714 C48.1523396,45.3113638 48.5226032,44.7697519 48.8069224,44.1778707 C48.8161114,44.1589521 48.8247599,44.1411146 48.8334084,44.1227365 Z" id="Fill-2" fill="#66CCCC"></path>
    </g>
</svg>